<?xml version="1.0" encoding="UTF-8" standalone="no"?>
<!DOCTYPE svg PUBLIC "-//W3C//DTD SVG 1.1//EN"
 "http://www.w3.org/Graphics/SVG/1.1/DTD/svg11.dtd">
<!-- Generated by graphviz version 2.38.0 (20140413.2041)
 -->
<!-- Title: G Pages: 1 -->
<svg width="184pt" height="858pt"
 viewBox="0.00 0.00 184.19 858.00" xmlns="http://www.w3.org/2000/svg" xmlns:xlink="http://www.w3.org/1999/xlink">
<g id="graph0" class="graph" transform="scale(1 1) rotate(0) translate(4 854)">
<title>G</title>
<polygon fill="white" stroke="none" points="-4,4 -4,-854 180.187,-854 180.187,4 -4,4"/>
<text text-anchor="middle" x="88.0933" y="-6.8" font-family="Times,serif" font-size="14.00">Middleware Execution Flow</text>
<!-- NewRelic -->
<!-- Wildcard node added automatic in EG. -->
<g id="node1" class="node"><title>NewRelic</title>
<ellipse fill="none" stroke="black" cx="88.0933" cy="-832" rx="45.4355" ry="18"/>
<text text-anchor="middle" x="88.0933" y="-827.8" font-family="Times,serif" font-size="14.00">NewRelic</text>
</g>
<!-- request_to_curl -->
<!-- Wildcard node added automatic in EG. -->
<g id="node2" class="node"><title>request_to_curl</title>
<ellipse fill="none" stroke="black" cx="88.0933" cy="-760" rx="65.2304" ry="18"/>
<text text-anchor="middle" x="88.0933" y="-755.8" font-family="Times,serif" font-size="14.00">request_to_curl</text>
</g>
<!-- NewRelic&#45;&gt;request_to_curl -->
<!-- Wildcard node added automatic in EG. -->
<g id="edge1" class="edge"><title>NewRelic&#45;&gt;request_to_curl</title>
<path fill="none" stroke="black" d="M82.215,-814.055C81.3969,-806.346 81.1546,-797.027 81.4881,-788.364"/>
<polygon fill="black" stroke="black" points="84.9875,-788.491 82.1804,-778.275 78.0039,-788.012 84.9875,-788.491"/>
</g>
<!-- request_to_curl&#45;&gt;NewRelic -->
<!-- Wildcard node added automatic in EG. -->
<g id="edge22" class="edge"><title>request_to_curl&#45;&gt;NewRelic</title>
<path fill="none" stroke="black" d="M94.0061,-778.275C94.8078,-786.03 95.0337,-795.362 94.6838,-804.005"/>
<polygon fill="black" stroke="black" points="91.1874,-803.832 93.9715,-814.055 98.1699,-804.327 91.1874,-803.832"/>
</g>
<!-- logging -->
<!-- Wildcard node added automatic in EG. -->
<g id="node3" class="node"><title>logging</title>
<ellipse fill="none" stroke="black" cx="88.0933" cy="-688" rx="37.2594" ry="18"/>
<text text-anchor="middle" x="88.0933" y="-683.8" font-family="Times,serif" font-size="14.00">logging</text>
</g>
<!-- request_to_curl&#45;&gt;logging -->
<!-- Wildcard node added automatic in EG. -->
<g id="edge2" class="edge"><title>request_to_curl&#45;&gt;logging</title>
<path fill="none" stroke="black" d="M82.215,-742.055C81.3847,-734.231 81.1475,-724.748 81.5034,-715.977"/>
<polygon fill="black" stroke="black" points="85.0097,-716.013 82.2317,-705.789 78.0275,-715.514 85.0097,-716.013"/>
</g>
<!-- logging&#45;&gt;request_to_curl -->
<!-- Wildcard node added automatic in EG. -->
<g id="edge21" class="edge"><title>logging&#45;&gt;request_to_curl</title>
<path fill="none" stroke="black" d="M93.9548,-705.789C94.793,-713.591 95.0381,-723.067 94.6901,-731.848"/>
<polygon fill="black" stroke="black" points="91.1825,-731.834 93.9715,-742.055 98.1653,-732.325 91.1825,-731.834"/>
</g>
<!-- error -->
<!-- Wildcard node added automatic in EG. -->
<g id="node4" class="node"><title>error</title>
<ellipse fill="none" stroke="black" cx="88.0933" cy="-616" rx="27.0787" ry="18"/>
<text text-anchor="middle" x="88.0933" y="-611.8" font-family="Times,serif" font-size="14.00">error</text>
</g>
<!-- logging&#45;&gt;error -->
<!-- Wildcard node added automatic in EG. -->
<g id="edge3" class="edge"><title>logging&#45;&gt;error</title>
<path fill="none" stroke="black" d="M82.215,-670.055C81.3847,-662.231 81.1475,-652.748 81.5034,-643.977"/>
<polygon fill="black" stroke="black" points="85.0097,-644.013 82.2317,-633.789 78.0275,-643.514 85.0097,-644.013"/>
</g>
<!-- error&#45;&gt;logging -->
<!-- Wildcard node added automatic in EG. -->
<g id="edge20" class="edge"><title>error&#45;&gt;logging</title>
<path fill="none" stroke="black" d="M93.9548,-633.789C94.793,-641.591 95.0381,-651.067 94.6901,-659.848"/>
<polygon fill="black" stroke="black" points="91.1825,-659.834 93.9715,-670.055 98.1653,-660.325 91.1825,-659.834"/>
</g>
<!-- process -->
<!-- Wildcard node added automatic in EG. -->
<g id="node5" class="node"><title>process</title>
<ellipse fill="none" stroke="black" cx="88.0933" cy="-544" rx="36.7576" ry="18"/>
<text text-anchor="middle" x="88.0933" y="-539.8" font-family="Times,serif" font-size="14.00">process</text>
</g>
<!-- error&#45;&gt;process -->
<!-- Wildcard node added automatic in EG. -->
<g id="edge4" class="edge"><title>error&#45;&gt;process</title>
<path fill="none" stroke="black" d="M82.2533,-598.411C81.3907,-590.507 81.1413,-580.852 81.5051,-571.935"/>
<polygon fill="black" stroke="black" points="84.9965,-572.179 82.2138,-561.956 78.0141,-571.683 84.9965,-572.179"/>
</g>
<!-- process&#45;&gt;error -->
<!-- Wildcard node added automatic in EG. -->
<g id="edge19" class="edge"><title>process&#45;&gt;error</title>
<path fill="none" stroke="black" d="M93.9727,-561.956C94.8072,-569.827 95.0417,-579.374 94.6764,-588.187"/>
<polygon fill="black" stroke="black" points="91.1675,-588.184 93.9332,-598.411 98.1491,-588.691 91.1675,-588.184"/>
</g>
<!-- session -->
<!-- Wildcard node added automatic in EG. -->
<g id="node6" class="node"><title>session</title>
<ellipse fill="none" stroke="black" cx="88.0933" cy="-472" rx="35.8147" ry="18"/>
<text text-anchor="middle" x="88.0933" y="-467.8" font-family="Times,serif" font-size="14.00">session</text>
</g>
<!-- process&#45;&gt;session -->
<!-- Wildcard node added automatic in EG. -->
<g id="edge5" class="edge"><title>process&#45;&gt;session</title>
<path fill="none" stroke="black" d="M82.215,-526.055C81.3847,-518.231 81.1475,-508.748 81.5034,-499.977"/>
<polygon fill="black" stroke="black" points="85.0097,-500.013 82.2317,-489.789 78.0275,-499.514 85.0097,-500.013"/>
</g>
<!-- session&#45;&gt;process -->
<!-- Wildcard node added automatic in EG. -->
<g id="edge18" class="edge"><title>session&#45;&gt;process</title>
<path fill="none" stroke="black" d="M93.9548,-489.789C94.793,-497.591 95.0381,-507.067 94.6901,-515.848"/>
<polygon fill="black" stroke="black" points="91.1825,-515.834 93.9715,-526.055 98.1653,-516.325 91.1825,-515.834"/>
</g>
<!-- jsonBody -->
<!-- Wildcard node added automatic in EG. -->
<g id="node7" class="node"><title>jsonBody</title>
<ellipse fill="none" stroke="black" cx="88.0933" cy="-400" rx="44.0251" ry="18"/>
<text text-anchor="middle" x="88.0933" y="-395.8" font-family="Times,serif" font-size="14.00">jsonBody</text>
</g>
<!-- session&#45;&gt;jsonBody -->
<!-- Wildcard node added automatic in EG. -->
<g id="edge6" class="edge"><title>session&#45;&gt;jsonBody</title>
<path fill="none" stroke="black" d="M82.215,-454.055C81.3969,-446.346 81.1546,-437.027 81.4881,-428.364"/>
<polygon fill="black" stroke="black" points="84.9875,-428.491 82.1804,-418.275 78.0039,-428.012 84.9875,-428.491"/>
</g>
<!-- jsonBody&#45;&gt;session -->
<!-- Wildcard node added automatic in EG. -->
<g id="edge17" class="edge"><title>jsonBody&#45;&gt;session</title>
<path fill="none" stroke="black" d="M94.0061,-418.275C94.8078,-426.03 95.0337,-435.362 94.6838,-444.005"/>
<polygon fill="black" stroke="black" points="91.1874,-443.832 93.9715,-454.055 98.1699,-444.327 91.1874,-443.832"/>
</g>
<!-- database -->
<!-- Wildcard node added automatic in EG. -->
<g id="node8" class="node"><title>database</title>
<ellipse fill="none" stroke="black" cx="88.0933" cy="-328" rx="40.5989" ry="18"/>
<text text-anchor="middle" x="88.0933" y="-323.8" font-family="Times,serif" font-size="14.00">database</text>
</g>
<!-- jsonBody&#45;&gt;database -->
<!-- Wildcard node added automatic in EG. -->
<g id="edge7" class="edge"><title>jsonBody&#45;&gt;database</title>
<path fill="none" stroke="black" d="M82.215,-382.055C81.3969,-374.346 81.1546,-365.027 81.4881,-356.364"/>
<polygon fill="black" stroke="black" points="84.9875,-356.491 82.1804,-346.275 78.0039,-356.012 84.9875,-356.491"/>
</g>
<!-- database&#45;&gt;jsonBody -->
<!-- Wildcard node added automatic in EG. -->
<g id="edge16" class="edge"><title>database&#45;&gt;jsonBody</title>
<path fill="none" stroke="black" d="M94.0061,-346.275C94.8078,-354.03 95.0337,-363.362 94.6838,-372.005"/>
<polygon fill="black" stroke="black" points="91.1874,-371.832 93.9715,-382.055 98.1699,-372.327 91.1874,-371.832"/>
</g>
<!-- lookup -->
<!-- Wildcard node added automatic in EG. -->
<g id="node9" class="node"><title>lookup</title>
<ellipse fill="none" stroke="black" cx="88.0933" cy="-256" rx="34.8458" ry="18"/>
<text text-anchor="middle" x="88.0933" y="-251.8" font-family="Times,serif" font-size="14.00">lookup</text>
</g>
<!-- database&#45;&gt;lookup -->
<!-- Wildcard node added automatic in EG. -->
<g id="edge8" class="edge"><title>database&#45;&gt;lookup</title>
<path fill="none" stroke="black" d="M82.215,-310.055C81.3847,-302.231 81.1475,-292.748 81.5034,-283.977"/>
<polygon fill="black" stroke="black" points="85.0097,-284.013 82.2317,-273.789 78.0275,-283.514 85.0097,-284.013"/>
</g>
<!-- lookup&#45;&gt;database -->
<!-- Wildcard node added automatic in EG. -->
<g id="edge15" class="edge"><title>lookup&#45;&gt;database</title>
<path fill="none" stroke="black" d="M93.9548,-273.789C94.793,-281.591 95.0381,-291.067 94.6901,-299.848"/>
<polygon fill="black" stroke="black" points="91.1825,-299.834 93.9715,-310.055 98.1653,-300.325 91.1825,-299.834"/>
</g>
<!-- request -->
<!-- Wildcard node added automatic in EG. -->
<g id="node10" class="node"><title>request</title>
<ellipse fill="none" stroke="black" cx="88.0933" cy="-184" rx="35.7887" ry="18"/>
<text text-anchor="middle" x="88.0933" y="-179.8" font-family="Times,serif" font-size="14.00">request</text>
</g>
<!-- lookup&#45;&gt;request -->
<!-- Wildcard node added automatic in EG. -->
<g id="edge9" class="edge"><title>lookup&#45;&gt;request</title>
<path fill="none" stroke="black" d="M82.215,-238.055C81.3847,-230.231 81.1475,-220.748 81.5034,-211.977"/>
<polygon fill="black" stroke="black" points="85.0097,-212.013 82.2317,-201.789 78.0275,-211.514 85.0097,-212.013"/>
</g>
<!-- request&#45;&gt;lookup -->
<!-- Wildcard node added automatic in EG. -->
<g id="edge14" class="edge"><title>request&#45;&gt;lookup</title>
<path fill="none" stroke="black" d="M93.9548,-201.789C94.793,-209.591 95.0381,-219.067 94.6901,-227.848"/>
<polygon fill="black" stroke="black" points="91.1825,-227.834 93.9715,-238.055 98.1653,-228.325 91.1825,-227.834"/>
</g>
<!-- json -->
<!-- Wildcard node added automatic in EG. -->
<g id="node11" class="node"><title>json</title>
<ellipse fill="none" stroke="black" cx="88.0933" cy="-112" rx="27" ry="18"/>
<text text-anchor="middle" x="88.0933" y="-107.8" font-family="Times,serif" font-size="14.00">json</text>
</g>
<!-- request&#45;&gt;json -->
<!-- Wildcard node added automatic in EG. -->
<g id="edge10" class="edge"><title>request&#45;&gt;json</title>
<path fill="none" stroke="black" d="M82.215,-166.055C81.3847,-158.231 81.1475,-148.748 81.5034,-139.977"/>
<polygon fill="black" stroke="black" points="85.0097,-140.013 82.2317,-129.789 78.0275,-139.514 85.0097,-140.013"/>
</g>
<!-- json&#45;&gt;request -->
<!-- Wildcard node added automatic in EG. -->
<g id="edge13" class="edge"><title>json&#45;&gt;request</title>
<path fill="none" stroke="black" d="M93.9548,-129.789C94.793,-137.591 95.0381,-147.067 94.6901,-155.848"/>
<polygon fill="black" stroke="black" points="91.1825,-155.834 93.9715,-166.055 98.1653,-156.325 91.1825,-155.834"/>
</g>
<!-- routes -->
<!-- Wildcard node added automatic in EG. -->
<g id="node12" class="node"><title>routes</title>
<ellipse fill="none" stroke="black" cx="88.0933" cy="-40" rx="31.9393" ry="18"/>
<text text-anchor="middle" x="88.0933" y="-35.8" font-family="Times,serif" font-size="14.00">routes</text>
</g>
<!-- json&#45;&gt;routes -->
<!-- Wildcard node added automatic in EG. -->
<g id="edge11" class="edge"><title>json&#45;&gt;routes</title>
<path fill="none" stroke="black" d="M82.2533,-94.411C81.3907,-86.507 81.1413,-76.8518 81.5051,-67.9352"/>
<polygon fill="black" stroke="black" points="84.9965,-68.1791 82.2138,-57.9562 78.0141,-67.6831 84.9965,-68.1791"/>
</g>
<!-- routes&#45;&gt;json -->
<!-- Wildcard node added automatic in EG. -->
<g id="edge12" class="edge"><title>routes&#45;&gt;json</title>
<path fill="none" stroke="black" d="M93.9727,-57.9562C94.8072,-65.8272 95.0417,-75.3739 94.6764,-84.1869"/>
<polygon fill="black" stroke="black" points="91.1675,-84.1835 93.9332,-94.411 98.1491,-84.6911 91.1675,-84.1835"/>
</g>
</g>
</svg>
